<svg width="1080" height="1080" viewBox="0 0 1080 1080" fill="none" xmlns="http://www.w3.org/2000/svg">
<rect width="1080" height="1080" fill="#EAE6CD"/>
<g clip-path="url(#clip0_1_2)">
<path d="M855 657.038L614.947 610.835L771.396 573.755C801.418 566.642 818.516 534.944 807.942 505.935L786.453 446.93L572.836 565.869L668.869 436.879C687.297 412.138 680 376.852 653.286 361.42L598.931 330L511.74 558.447L502.403 397.913C500.61 367.111 472.35 344.751 441.988 350.133L380.15 361.049L460.168 592.094L349.85 475.103C328.67 452.651 292.681 453.702 272.862 477.329L232.513 525.45L442.297 651.007L282.602 632.328C251.961 628.741 225.062 652.708 225.062 683.541V746.351L522.067 698.725L573.485 690.499C573.485 676.737 563.189 665.14 549.492 663.532L524.912 660.656V660.594C515.079 660.068 507.535 651.1 509.576 640.771C510.782 634.74 515.481 629.792 521.418 628.215C526.272 626.916 530.817 627.875 534.466 630.163L762.027 744.495C789.607 758.35 823.061 745.052 833.604 716.044L855.093 657.007L855 657.038Z" fill="#E59C47"/>
</g>
<defs>
<clipPath id="clip0_1_2">
<rect width="630" height="420" fill="white" transform="translate(225 330)"/>
</clipPath>
</defs>
</svg>
